<?xml version="1.0" encoding="UTF-8"?>
<svg xmlns="http://www.w3.org/2000/svg" xmlns:xlink="http://www.w3.org/1999/xlink" width="40px" height="40px" viewBox="0 0 40 40" version="1.1">
  <defs>
    <style>
      .cls-1 {
        fill: #ccc;
        fill-rule: evenodd;
      }
    </style>
  </defs>
<path class="cls-1" d="M 14.101562 13.816406 C 13.445312 13.144531 12.371094 13.128906 11.699219 13.785156 C 11.027344 14.4375 11.011719 15.511719 11.667969 16.183594 L 15.566406 20 L 11.667969 23.816406 C 11.351562 24.128906 11.171875 24.554688 11.171875 25 C 11.171875 25.445312 11.351562 25.871094 11.667969 26.183594 C 11.980469 26.5 12.40625 26.675781 12.851562 26.675781 C 13.292969 26.675781 13.71875 26.5 14.035156 26.183594 L 19.035156 21.183594 C 19.347656 20.871094 19.527344 20.445312 19.527344 20 C 19.527344 19.554688 19.347656 19.128906 19.035156 18.816406 Z M 28.265625 18.816406 L 23.265625 13.816406 C 22.613281 13.164062 21.554688 13.164062 20.898438 13.816406 C 20.246094 14.46875 20.246094 15.53125 20.898438 16.183594 L 24.734375 20 L 20.898438 23.816406 C 20.585938 24.128906 20.40625 24.554688 20.40625 25 C 20.40625 25.445312 20.585938 25.871094 20.898438 26.183594 C 21.214844 26.5 21.640625 26.675781 22.082031 26.675781 C 22.527344 26.675781 22.953125 26.5 23.265625 26.183594 L 28.265625 21.183594 C 28.589844 20.878906 28.78125 20.457031 28.792969 20.015625 C 28.804688 19.570312 28.640625 19.136719 28.332031 18.816406 Z M 28.265625 18.816406 "/>
</svg>
