<?xml version="1.0" encoding="UTF-8"?>
<svg xmlns="http://www.w3.org/2000/svg" xmlns:xlink="http://www.w3.org/1999/xlink" width="30px" height="30px" viewBox="0 0 30 30" version="1.1">
  <defs>
    <style>
      .cls-1 {
        fill: #fff;
        fill-rule: evenodd;
      }
    </style>
  </defs>
<path class="cls-1" d="M 25.011719 19.222656 C 23.476562 19.222656 21.988281 18.976562 20.597656 18.523438 C 20.160156 18.375 19.675781 18.488281 19.339844 18.824219 L 17.375 21.285156 C 13.835938 19.597656 10.527344 16.410156 8.761719 12.75 L 11.199219 10.675781 C 11.535156 10.324219 11.636719 9.839844 11.5 9.402344 C 11.035156 8.011719 10.800781 6.523438 10.800781 4.988281 C 10.800781 4.3125 10.238281 3.75 9.5625 3.75 L 5.238281 3.75 C 4.5625 3.75 3.75 4.050781 3.75 4.988281 C 3.75 16.597656 13.410156 26.25 25.011719 26.25 C 25.902344 26.25 26.25 25.460938 26.25 24.777344 L 26.25 20.464844 C 26.25 19.785156 25.6875 19.222656 25.011719 19.222656 Z M 25.011719 19.222656 "/>
</svg>
