<?xml version="1.0" encoding="UTF-8"?>
<svg xmlns="http://www.w3.org/2000/svg" xmlns:xlink="http://www.w3.org/1999/xlink" width="30px" height="27px" viewBox="0 0 30 27" version="1.1">
  <defs>
    <style>
      .cls-1 {
        fill: #fff;
        fill-rule: evenodd;
      }
    </style>
  </defs>
<path class="cls-1" d="M 9.394531 9.582031 C 9.5625 9.363281 9.734375 9.144531 9.90625 8.925781 C 10.339844 8.367188 10.792969 7.792969 11.214844 7.207031 C 11.765625 6.457031 11.726562 6.109375 11.027344 5.441406 C 10.96875 5.386719 10.90625 5.332031 10.84375 5.28125 C 10.796875 5.242188 10.75 5.199219 10.703125 5.160156 L 10.152344 4.65625 C 9.625 4.175781 9.082031 3.675781 8.550781 3.179688 C 8.144531 2.804688 7.742188 2.429688 7.339844 2.050781 C 6.804688 1.546875 6.25 1.023438 5.703125 0.515625 C 5.085938 -0.0507812 4.734375 -0.0507812 4.132812 0.523438 C 3.5625 1.066406 2.984375 1.621094 2.425781 2.160156 C 1.925781 2.640625 1.421875 3.121094 0.921875 3.601562 C 0.703125 3.808594 0.527344 4.058594 0.40625 4.335938 C 0.289062 4.617188 0.226562 4.917969 0.230469 5.21875 C 0.234375 5.695312 0.292969 6.171875 0.40625 6.632812 C 0.699219 7.894531 1.320312 9.027344 1.921875 10.121094 L 2.070312 10.394531 C 3.632812 13.246094 5.324219 15.523438 7.242188 17.351562 C 7.597656 17.691406 7.933594 18.066406 8.257812 18.429688 C 8.691406 18.933594 9.160156 19.410156 9.660156 19.847656 C 11.117188 21.082031 12.71875 22.332031 14.554688 23.675781 C 16.066406 24.78125 17.394531 25.582031 18.734375 26.195312 C 19.714844 26.65625 20.785156 26.898438 21.867188 26.910156 C 22.332031 26.910156 22.792969 26.859375 23.246094 26.765625 L 23.320312 26.75 C 24.007812 26.609375 24.722656 26.460938 25.320312 25.976562 C 25.617188 25.734375 25.945312 25.515625 26.257812 25.300781 C 26.421875 25.1875 26.585938 25.074219 26.75 24.960938 C 26.894531 24.855469 27.042969 24.757812 27.191406 24.65625 C 27.558594 24.425781 27.90625 24.164062 28.230469 23.875 C 29.132812 23.03125 28.945312 22.445312 28.3125 21.722656 C 27.625 20.929688 26.953125 20.097656 26.300781 19.292969 C 26.042969 18.972656 25.785156 18.65625 25.523438 18.335938 C 25.320312 18.085938 25.117188 17.835938 24.914062 17.582031 C 24.523438 17.097656 24.121094 16.59375 23.707031 16.113281 C 22.925781 15.199219 22.59375 15.167969 21.621094 15.929688 C 20.949219 16.453125 20.273438 16.992188 19.617188 17.515625 C 19.203125 17.84375 18.789062 18.175781 18.378906 18.503906 C 18.253906 18.601562 18.121094 18.691406 17.996094 18.78125 L 17.917969 18.835938 C 17.664062 18.570312 17.410156 18.304688 17.160156 18.035156 C 14.59375 15.324219 11.9375 12.519531 9.039062 10.019531 C 9.070312 9.980469 9.097656 9.949219 9.125 9.914062 C 9.226562 9.792969 9.3125 9.6875 9.394531 9.582031 Z M 7.714844 10.378906 C 9.515625 12.328125 11.3125 14.28125 13.109375 16.234375 L 15.648438 18.992188 C 15.753906 19.105469 15.863281 19.21875 15.96875 19.335938 C 16.152344 19.527344 16.339844 19.726562 16.515625 19.925781 C 17.078125 20.578125 17.730469 20.660156 18.691406 20.199219 C 18.996094 20.039062 19.277344 19.84375 19.535156 19.613281 C 19.621094 19.542969 19.707031 19.472656 19.796875 19.402344 C 20.464844 18.882812 21.132812 18.363281 21.8125 17.828125 L 22.558594 17.246094 L 27.117188 22.859375 C 26.882812 23.027344 26.648438 23.195312 26.421875 23.363281 C 25.789062 23.839844 25.132812 24.28125 24.449219 24.679688 C 23.910156 24.980469 23.226562 25.078125 22.574219 25.148438 C 21.1875 25.304688 19.929688 25.066406 18.828125 24.445312 L 18.617188 24.324219 C 17.523438 23.707031 16.398438 23.070312 15.363281 22.339844 C 13.933594 21.347656 12.558594 20.277344 11.246094 19.136719 C 10.605469 18.554688 9.996094 17.9375 9.417969 17.292969 C 9.007812 16.847656 8.582031 16.390625 8.140625 15.960938 C 7.003906 14.851562 5.9375 13.515625 4.773438 11.746094 C 3.742188 10.179688 2.949219 8.539062 2.3125 7.136719 C 2.070312 6.605469 1.835938 5.972656 1.917969 5.3125 C 1.933594 5.054688 2.019531 4.808594 2.167969 4.601562 C 2.871094 3.792969 3.609375 2.992188 4.324219 2.214844 C 4.527344 1.996094 4.730469 1.773438 4.933594 1.550781 C 6.542969 3.386719 8.296875 5.113281 9.960938 6.707031 C 9.429688 7.445312 8.808594 8.113281 8.117188 8.695312 C 8.070312 8.730469 8.027344 8.761719 7.984375 8.796875 C 7.894531 8.863281 7.8125 8.933594 7.730469 9.007812 C 7.261719 9.457031 7.257812 9.878906 7.714844 10.378906 Z M 7.714844 10.378906 "/>
  <defs>
    <style>
      .cls-2 {
        fill: #fff;
        fill-rule: evenodd;
      }
    </style>
  </defs>
<path class="cls-2" d="M 23.601562 2.539062 C 21.214844 0.960938 18.367188 0.167969 14.648438 0.0429688 C 13.234375 -0.015625 10.992188 0.445312 9.722656 0.902344 C 9.503906 0.980469 9.296875 1.089844 9.109375 1.230469 C 8.839844 1.429688 8.761719 1.710938 8.898438 1.976562 C 9.054688 2.273438 9.316406 2.195312 9.472656 2.148438 C 9.503906 2.140625 9.535156 2.128906 9.5625 2.125 C 11.316406 1.710938 12.671875 1.527344 13.953125 1.527344 L 13.972656 1.527344 C 15.382812 1.535156 16.785156 1.703125 18.15625 2.027344 C 21.414062 2.773438 23.957031 4.351562 25.933594 6.859375 C 27.714844 9.117188 28.371094 11.679688 27.945312 14.6875 C 27.84375 15.425781 27.644531 16.144531 27.355469 16.832031 C 27.160156 17.296875 27.136719 17.6875 27.28125 18.054688 C 27.3125 18.15625 27.363281 18.253906 27.4375 18.332031 C 27.507812 18.414062 27.59375 18.476562 27.691406 18.515625 C 27.75 18.539062 27.8125 18.546875 27.875 18.546875 C 28.011719 18.542969 28.148438 18.503906 28.265625 18.429688 C 28.601562 18.234375 28.839844 17.933594 29.019531 17.472656 C 30.101562 14.691406 30.15625 11.949219 29.1875 9.3125 C 28.191406 6.609375 26.3125 4.332031 23.601562 2.539062 Z M 23.601562 2.539062 "/>
  <defs>
    <style>
      .cls-3 {
        fill: #fff;
        fill-rule: evenodd;
      }
    </style>
  </defs>
<path class="cls-3" d="M 23.097656 13.816406 C 23.21875 13.984375 23.40625 14.191406 23.6875 14.191406 C 23.734375 14.191406 23.785156 14.1875 23.832031 14.175781 C 24.1875 14.089844 24.253906 13.734375 24.285156 13.566406 C 24.429688 12.75 24.328125 11.914062 23.992188 11.160156 C 23.722656 10.535156 23.460938 9.992188 23.191406 9.5 C 22.414062 8.070312 21.59375 7.078125 20.609375 6.382812 C 18.589844 4.957031 16.871094 4.269531 15.039062 4.164062 C 14.164062 4.109375 13.46875 4.222656 12.847656 4.515625 C 12.449219 4.707031 12.457031 4.988281 12.5 5.140625 C 12.589844 5.46875 12.890625 5.453125 13.070312 5.445312 C 13.203125 5.441406 13.34375 5.429688 13.503906 5.410156 C 13.742188 5.382812 13.980469 5.351562 14.21875 5.320312 L 14.515625 5.285156 C 15.457031 5.296875 16.429688 5.535156 17.566406 6.039062 C 19.59375 6.9375 20.992188 8.199219 21.847656 9.898438 C 21.988281 10.179688 22.117188 10.46875 22.246094 10.75 C 22.332031 10.945312 22.421875 11.144531 22.511719 11.335938 C 22.75 11.789062 22.855469 12.300781 22.824219 12.808594 C 22.785156 13.167969 22.882812 13.527344 23.097656 13.816406 Z M 23.097656 13.816406 "/>
</svg>
